# xmcd CD database file
# Copyright (C) 1993-1998 Ti Kan
# 
# Track frame offsets:
#     150
#     13425
#     26467
#     41150
#     54817
#     68347
#     103822
#     117702
#     132980
#     153825
#     167475
#     186810
# 
# Disc length: 2849 seconds
# 
# Revision: 1
# Processed by: cddbd v1.4b41PL1 Copyright (c) Steve Scherf et al.
# Submitted via: DiscPlay 4.0.4
# 
DISCID=9b0b1f0c
DTITLE=Various Artist - Vintage Blues
DYEAR=1900
DGENRE=
TTITLE0=Muddy Waters-Manish Boy
TTITLE1=Howlin Wolf- I Ain't Superstitous
TTITLE2=Buddy Guy- The Way You Been Treating Me
TTITLE3=Koko Taylor-Wang Dang Doodle
TTITLE4=BB King- Rock Me Baby
TTITLE5=Arthur Adams- You Really Got It Goin On
TTITLE6=Chuck Berry -WeeWee Hours
TTITLE7=Ray Charles-Sinners Prayer
TTITLE8=John Lee Hooker- I Wonder Why
TTITLE9=Albert King- Bad Luck
TTITLE10=Etta James-Baby
TTITLE11=Howlin' Wolf W/Eric Clapton-Red Rooster
EXTD=
EXTT0=
EXTT1=
EXTT2=
EXTT3=
EXTT4=
EXTT5=
EXTT6=
EXTT7=
EXTT8=
EXTT9=
EXTT10=
EXTT11=
PLAYORDER=
